<?xml version="1.0" encoding="UTF-8" standalone="no"?>
<svg
   xmlns:dc="http://purl.org/dc/elements/1.1/"
   xmlns:cc="http://creativecommons.org/ns#"
   xmlns:rdf="http://www.w3.org/1999/02/22-rdf-syntax-ns#"
   xmlns:svg="http://www.w3.org/2000/svg"
   xmlns="http://www.w3.org/2000/svg"
   viewBox="0 0 1300 953.33331"
   height="953.33331"
   width="1300"
   xml:space="preserve"
   id="svg2"
   version="1.1"><metadata
     id="metadata8"><rdf:RDF><cc:Work
         rdf:about=""><dc:format>image/svg+xml</dc:format><dc:type
           rdf:resource="http://purl.org/dc/dcmitype/StillImage" /></cc:Work></rdf:RDF></metadata><defs
     id="defs6" /><g
     transform="matrix(1.3333333,0,0,-1.3333333,0,953.33333)"
     id="g10"><g
       transform="matrix(1,0,0,-1,113.20837,714.90845)"
       id="g16"><path
         id="path18"
         style="fill:#fff;fill-opacity:1;fill-rule:nonzero;stroke:none"
         d="m 309.25824,17.241821 c -59.99999,4.666687 -114.66666,23.200012 -162.93332,55.333374 -21.33333,14.266663 -33.46666,24.533326 -53.199989,44.799985 -25.866668,26.66669 -41.999996,48.93329 -56.399994,77.99997 -27.866665,55.73334 -39.599998,112 -36.133331,172.53333 5.999999,105.06668 68.933327,206.93338 163.333324,264.40005 86.39999,52.66663 190,61.86664 285.19998,25.59998 26.39999,-10 57.86667,-27.59998 80.93332,-44.93335 64.26666,-48.53333 106.13336,-110.93335 125.86664,-187.46668 2.53338,-9.73333 4.53338,-18.93332 4.53338,-20.26666 0,-2.53332 -1.06671,-2.66666 -23.8667,-2.66666 h -23.73334 l -1.73333,8.26667 c -2.79999,14.80002 -11.86664,39.86667 -20.53333,57.73333 -40.39996,82.26664 -114.93332,140.80002 -200.93332,157.86667 -24.93332,4.93335 -36.53332,5.8667 -64.53332,5.06665 -44.13333,-1.19995 -76.53333,-8.93329 -114.66666,-27.59997 C 138.32492,568.84186 84.591599,506.97516 59.924934,430.7085 34.991604,353.77515 47.658264,259.90848 91.924927,193.77515 139.25825,122.97516 206.19159,79.908508 288.72491,66.975159 c 21.20002,-3.333313 73.46668,-3.333313 92.4,0 48,8.533325 88.53332,26.400024 128.79999,57.066711 50.66665,38.53332 88.93331,99.19995 101.46664,160.79996 l 3.06671,15.06665 h 23.73334 23.73328 l -0.79999,-5.06665 C 654.59155,255.77515 646.45825,229.24182 632.05823,200.17514 590.19159,116.44183 516.59155,55.108521 428.19159,30.041809 c -38,-10.799988 -82.53336,-15.599976 -118.93335,-12.799988 z" /></g><g
       transform="matrix(1,0,0,-1,439,616.33325)"
       id="g20"><path
         id="path22"
         style="fill:#fff;fill-opacity:1;fill-rule:nonzero;stroke:none"
         d="M 0,250.26659 V 500.3999 l 17.733334,-0.93332 c 9.6,-0.53335 20.26667,-1.33334 23.600002,-1.86667 l 6,-0.93335 0.400001,-119.73333 0.266667,-119.59998 H 92.000008 136 V 232.66659 207.99991 H 92.000008 48.000004 V 129.86658 51.733276 l 5.733333,0.933319 c 8.933335,1.466675 30,8.533326 42.133332,14.133332 31.066671,14.399994 63.200011,43.066653 81.333341,72.799983 l 4.26666,6.93335 27.33335,0.4 c 14.93332,0.26666 27.19999,0 27.19999,-0.66666 0,-2 -13.46667,-27.86667 -19.19999,-36.66668 C 197.06668,78.799927 163.46667,47.866608 129.20001,28.933258 96.400002,10.666595 54.26667,-6.1e-5 15.200001,-6.1e-5 H 0 Z" /></g><g
       transform="matrix(1,0,0,-1,192.33325,615)"
       id="g24"><path
         id="path26"
         style="fill:#fff;fill-opacity:1;fill-rule:nonzero;stroke:none"
         d="M 196.00001,2.800018 C 166.26668,9.066681 129.73334,24.93335 105.33334,42.266693 91.066666,52.533356 67.333336,74.800049 55.866669,88.800049 19.466667,133.33337 0,188.66672 0,247.86671 c 0,92.26668 52.533333,177.73333 136.66667,222.26668 20.93334,11.06665 53.06668,21.73334 76.40001,25.20001 l 5.59999,0.93332 V 351.46674 206.66672 h -51.06666 -50.93334 l -0.26666,24.66665 -0.13334,24.66669 h 27.2 27.2 v 88 c 0,64.26666 -0.39999,88 -1.46666,88 -2.53334,0 -22.53332,-10.40002 -31.06666,-16.26666 C 94.266678,386.13336 64.400002,343.06671 52.400002,292.00006 47.866669,272.53339 46.800003,238.93338 49.866669,217.73337 59.600002,151.60004 98.933334,96.400024 156.93333,67.466705 c 6.80001,-3.333343 12.66669,-6.133331 13.06668,-6.133331 0.4,0 0.66666,16.800018 0.66666,37.333344 v 37.333312 h 24 24 v -67.999999 -68 l -4.93333,0.133331 c -2.80001,0 -10.79999,1.199982 -17.73333,2.666656 z" /></g><g
       transform="matrix(1,0,0,-1,605,422.7121)"
       id="g28"><path
         id="path30"
         style="fill:#fff;fill-opacity:1;fill-rule:nonzero;stroke:none"
         d="M 33.066669,3.578781 C 19.466669,8.245453 10.533334,16.645447 3.6,31.312119 L 0,39.045456 v 43.333336 43.333338 l 4.266667,8.8 c 5.6,11.33333 14.800001,20.53333 25.733335,25.73334 7.999998,3.73332 9.733335,4.13333 22.000002,4 10.533333,0 14.533329,-0.66667 19.333332,-2.80001 16.133339,-7.46667 26.000008,-21.06668 31.200004,-43.46667 l 0.8,-3.60001 H 86.666672 70.133339 l -2,3.86667 c -3.599999,6.93334 -9.600002,10.80001 -16.666668,10.80001 -7.466667,0 -11.733334,-2.66668 -14.400002,-9.2 -2.799999,-6.66667 -2.666667,-66.133332 0.266667,-72.933335 5.066666,-12.266663 22.933338,-12.533341 29.733337,-0.400002 l 2.266663,3.866669 h 17.066666 16.933338 l -0.8,-3.733338 C 97.733337,24.112122 87.066666,10.512115 69.333336,3.845444 59.733337,0.245438 42.933334,0.112122 33.066669,3.578781 Z" /></g></g></svg>